<?xml version="1.0" encoding="UTF-8"?><svg id="Calque_1" xmlns="http://www.w3.org/2000/svg" viewBox="0 0 3932.5393 984.6501"><defs><style>.cls-1{fill:#1a1a49;}.cls-2{fill:#db7092;stroke:#db7092;stroke-miterlimit:10;}.cls-3{fill:#7dc0a5;}.cls-4{fill:#5b4f8a;}.cls-5{fill:#f2e071;}.cls-6{fill:#fff;}</style></defs><path class="cls-6" d="M1643.0691,220.3c8.09-2.42,14.16-2.42,18.24,0,4.03,2.43,6.0701,6.5,6.0701,12.15l1.21,610.02c0,94.79-42.9399,142.1799-128.8,142.1799-33.23,0-68.0601-14.1801-104.51-42.53-6.49-5.6801-7.91-11.15-4.25-16.41,3.64-5.28,8.3101-6.6899,13.96-4.25,14.6,6.48,26.74,4.4399,36.47-6.0699,9.71-10.54,16.4-23.91,20.04-40.1,3.66-16.22,5.48-33.63,5.48-52.25v-504.91c0-1.22-.61-2.62-1.8199-4.25-1.23-1.61-3.05-2.01-5.48-1.22-7.28.82-11.75-2.62-13.37-10.32-1.62-7.69,1.23-13.16,8.5-16.41,57.52-27.53,106.9399-49.41,148.26-65.62h0v-.0099Z"/><path class="cls-6" d="M2683.4091,707.08c21.49,0,41.3301-4.54,59.51-13.64,18.1799-9.08,31-17.35,38.4399-24.8,7.45-7.44,11.5601-11.97,12.4099-13.63,1.6299-1.64,3.71-2.06,6.2-1.24,2.48.83,4.1201,2.28,4.9399,4.34.8301,2.07.8301,4.34,0,6.82-22.3,33.06-54.1399,61.18-95.45,84.3099-41.3501,23.15-90.95,33.47-148.79,31-84.3101-4.13-151.47-32.4301-201.48-84.94-50.03-52.48-75.01-122.12-75.01-208.91s26.6599-156.63,79.97-212.01c53.3-55.37,121.6799-83.07,205.1899-83.07,57.8401,0,104.77,9.72,140.71,29.13,35.96,19.43,60.9399,45.25,75.01,77.49,9.9299,23.98,3.3101,45.69-19.8401,65.1-23.1499,19.42-53.3201,27.08-90.51,22.93-6.6201,0-11.1599-2.89-13.6399-8.68-2.46-5.78-3.3101-11.98-2.46-18.61,5.77-24.79.6101-49.78-15.5-75.01-16.1201-25.2-38.24-43.59-66.3301-55.17-28.1101-11.56-54.99-11.56-80.6001,0-22.3201,9.92-38.4399,29.97-48.3501,60.14-9.9299,30.18-13.6399,62.61-11.1599,97.33,2.48,34.71,9.0801,68.19,19.8401,100.43,25.6101,71.91,59.29,126.68,101.04,164.28,41.73,37.62,83.6899,56.41,125.8401,56.41h.0203Z"/><path class="cls-1" d="M2144.8491,417.24c-.23,0-.46.03-.6899.03l.6599-.16.03.13h0Z"/><path class="cls-1" d="M2203.3991,393.5901c-3.1001,3.1-6.76,6.03-10.98,8.77,3.99-2.7,7.75-5.64,10.98-8.77Z"/><path class="cls-2" d="M2595.549,325.2101c.1299.29.25.57.3799.86,3.9199,8.91.74,18.73-6.48,25.26-15.75,14.25-21.3999,37.51-12.3799,58.01,9.02,20.52,29.98,32.07,51.1299,30.1,9.7-.9,19.0801,3.4,23,12.3.1201.28.25.56.3701.85,5.6899,12.94-2.6399,27.95-16.6699,29.67-40.1001,4.91-80.3501-16.61-97.45-55.5-17.1001-38.88-5.75-83.09,24.97-109.33,10.75-9.18,27.4399-5.17,33.1299,7.77h0v.0101Z"/><path class="cls-6" d="M1044.179,271.01c28.13-27.31,59.79-45.93,94.99-55.86,35.16-9.93,69.51-10.35,103.03-1.24,33.52,9.11,64.34,25.04,92.48,47.8,28.13,22.77,50.9,55.46,68.3,98.07,17.38,42.64,26.0699,90.43,26.0699,143.39s-9.3199,99.94-27.95,140.91c-18.61,40.97-42.8199,72.43-72.62,94.34-29.78,21.9399-62.0699,37.67-96.83,47.1801-34.75,9.51-69.13,11.79-103.05,6.83-33.95-4.97-63.3101-16.14-88.14-33.52-7.46,15.73-19.46,23.59-36.01,23.59h-134.0699c-5.8,0-9.3199-2.0601-10.55-6.21-1.25-4.13.1801-7.85,4.34-11.17,10.73-8.26,16.12-23.16,16.12-44.69V101.55c0-1.24-.61-2.49-1.86-3.73-1.23-1.23-3.09-1.86-5.58-1.86-7.46.84-12.02-2.49-13.66-9.93-1.6801-7.45,1.23-13.23,8.6899-17.38,59.59-28.13,110.0599-50.07,151.47-65.8,9.09-3.29,15.52-3.73,19.24-1.24,3.72,2.49,5.58,6.64,5.58,12.42v256.98h.0101ZM1124.8891,763.89c46.33,0,81.3101-23.38,104.91-70.15,23.58-46.75,35.38-107.39,35.38-181.88,0-86.91-11.4-152.08-34.15-195.54-22.77-43.45-51.53-65.18-86.28-65.18-37.24,0-70.76,17.38-100.5699,52.14v429.56c23.1801,20.69,50.0699,31.04,80.7,31.04h.01v.01Z"/><path class="cls-6" d="M3369.1091,765.12c4.1399,3.3199,5.6001,7.04,4.3401,11.17-1.23,4.15-4.3401,6.21-9.3201,6.21h-184.97c-4.97,0-8.28-2.0601-9.9399-6.21-1.6599-4.13-.4199-7.85,3.74-11.17,10.73-7.45,16.1201-21.91,16.1201-43.44v-404.11c0-1.24-.6101-2.68-1.8601-4.34-1.23-1.65-3.0901-2.05-5.5801-1.24-7.46.84-12.02-2.68-13.6599-10.55-1.6799-7.86,1.23-13.45,8.6899-16.76,58.76-28.13,109.26-50.48,151.47-67.04,9.0901-2.48,15.52-2.48,19.24,0,3.72,2.49,5.5801,6.64,5.5801,12.42v490.39c0,21.53,5.3701,36.42,16.1399,44.69v-.02h.01Z"/><path class="cls-6" d="M3917.8391,216.39c3.3101,0,6.2202,1.05,8.6899,3.11,2.4902,2.07,3.7402,4.77,3.7402,8.06-1.6802,14.08-6.4302,33.12-14.29,57.11-7.8799,24.02-15.52,45.31-22.9502,63.93-7.46,18.62-16.5698,40.56-27.3198,65.8-10.77,25.26-16.9702,40.78-18.6299,46.56-5.7998,14.89-47.1602,116.7-124.1499,305.4-4.9502,10.77-13.6599,16.14-26.0701,16.14h-23.5801c-12.4299,0-21.1201-5.37-26.0901-16.14-95.1699-228.43-153.1201-370.78-173.8-427.06-4.97-12.42-11.6001-26.08-19.8601-40.97-8.28-14.9-16.77-28.97-25.46-42.21-8.6899-13.24-13.8601-21.11-15.52-23.59-1.6599-3.3-1.45-6.83.6299-10.56,2.0601-3.72,5.1499-5.59,9.3201-5.59h146.5c14.0601,0,26.8701,3.73,38.47,11.17,11.6001,7.46,19.8601,17.39,24.8301,29.79l132.8398,352.58c9.9399-24,23.1802-58.35,39.73-103.04,14.9102-35.57,19.6602-73.25,14.29-112.97-5.3999-39.73-13.0298-73.04-22.9702-99.94-9.9199-26.88-20.29-46.96-31.04-60.2-3.3101-3.3-4.3398-7.23-3.0898-11.8,1.23-4.54,3.9199-6.82,8.0601-6.82,82.75,0,132.0098.42,147.73,1.23h0l-.0098.0101Z"/><path class="cls-3" d="M1637.429,153.9301c35.41-58.13-44.5-123.98-99.71-82.18-3.46,2.62-6.6801,5.55-9.62,8.8-23.61,26.03-21.6,66.95-16.79,112.21,55.13-2.99,94.74-2.43,118.36-28.45,2.96-3.26,5.54-6.73,7.77-10.38h-.01Z"/><path class="cls-4" d="M584.8891,225.83c-15.14-.4-30.02-7.14-40.45-19.85-4.55-5.54-9.44-10.87-14.53-15.84-21.67-21.15-22.26-56.14-1.32-78.15,20.94-22.01,55.49-22.71,77.17-1.56,7.96,7.76,15.59,16.08,22.69,24.73,19.2401,23.44,16.04,58.29-7.16,77.85-10.62,8.96-23.6,13.15-36.39,12.82h-.0099Z"/><path class="cls-6" d="M3103.4592,729.12c6.6101-2.49,11.5801-1.03,14.8899,4.34,3.29,5.4,1.6599,10.98-4.97,16.7599-37.24,28.98-72.8201,43.45-106.75,43.45-87.74,0-131.6001-48.42-131.6001-145.25V239.9699h-24.8301c-10.77,0-16.1399-4.13-16.1399-12.42s4.97-12.41,14.9099-12.41h27.3v-95.6c0-12.42,5.8-21.51,17.3999-27.32,62.8799-27.31,103.4399-44.69,121.6599-52.14,8.26-2.48,14.47-2.48,18.6101,0,4.1399,2.49,6.22,6.64,6.22,12.42v162.64h48.4099c9.9199,0,14.8899,4.56,14.8899,13.65,0,7.46-4.5701,11.17-13.6599,11.17h-49.6499v388.59c0,18.21,1.8601,35.81,5.5801,52.76,3.72,16.97,10.55,30.85,20.49,41.58,9.9199,10.77,22.3501,12.85,37.24,6.21v.02h.0002Z"/><path class="cls-5" d="M3699.6691,303.8l46.8301-80.11c2.21-3.78-.52-8.54-4.8999-8.54h-93.6599c-4.3799,0-7.1101,4.75-4.8999,8.54l46.8301,80.11c2.1899,3.75,7.6001,3.75,9.79,0h.0095Z"/><path class="cls-6" d="M2317.3591,924.98v6.23h-25.5v19.78h20.7v6.23h-20.7v26.4301h-7.6599v-58.67h33.1599Z"/><path class="cls-6" d="M2338.309,980.4101c-4.49-2.55-8.04-6.12-10.6399-10.6899-2.6101-4.5699-3.9099-9.72-3.9099-15.45s1.3-10.87,3.9099-15.4399c2.6101-4.58,6.1499-8.14,10.6399-10.6899s9.46-3.83,14.8999-3.83,10.49,1.27,14.98,3.83c4.49,2.55,8.02,6.1,10.6001,10.64,2.5801,4.55,3.8701,9.71,3.8701,15.49s-1.29,10.95-3.8701,15.49c-2.5801,4.55-6.1201,8.1-10.6001,10.65-4.49,2.55-9.48,3.83-14.98,3.83s-10.4099-1.27-14.8999-3.83h0v-.0002ZM2364.279,974.72c3.28-1.9,5.8601-4.62,7.74-8.16s2.8201-7.63,2.8201-12.3-.9399-8.8199-2.8201-12.33c-1.8799-3.51-4.45-6.21-7.7-8.12s-6.96-2.86-11.1101-2.86-7.8601.95-11.1101,2.86c-3.25,1.9-5.8201,4.61-7.7,8.12s-2.8201,7.62-2.8201,12.33.9399,8.75,2.8201,12.3c1.8799,3.53,4.46,6.25,7.74,8.16s6.97,2.86,11.0701,2.86,7.79-.95,11.0701-2.86Z"/><path class="cls-6" d="M2423.6691,983.6501l-13.97-23.99h-9.26v23.99h-7.6599v-58.67h18.9399c4.4299,0,8.1799.76,11.24,2.27s5.3401,3.5601,6.8601,6.14c1.51,2.58,2.27,5.53,2.27,8.84,0,4.04-1.1599,7.6-3.49,10.6899s-5.8201,5.13-10.48,6.14l14.73,24.58h-9.1799l-.0002.0101ZM2400.4292,953.51h11.28c4.1499,0,7.27-1.02,9.3401-3.08,2.0801-2.05,3.1101-4.78,3.1101-8.21s-1.02-6.17-3.0701-8.08c-2.05-1.91-5.1799-2.86-9.3799-2.86h-11.28v22.22h0l-.0002.0099Z"/><path class="cls-6" d="M2503.4592,925.4001v58.24h-7.6599v-43.4301l-19.3601,43.4301h-5.3899l-19.4399-43.52v43.52h-7.6599v-58.24h8.25l21.55,48.14,21.55-48.14h8.1599-.0002Z"/><path class="cls-6" d="M2551.0991,970.6h-25.5901l-4.72,13.05h-8.0801l21.21-58.33h8.8401l21.1201,58.33h-8.0801l-4.71-13.05h.01ZM2548.9091,964.37l-10.6101-29.63-10.6001,29.63h21.2102Z"/><path class="cls-6" d="M2609.259,924.98v6.23h-15.99v52.4399h-7.6599v-52.4399h-16.0801v-6.23h39.73Z"/><path class="cls-6" d="M2626.3491,924.98v58.67h-7.6599v-58.67h7.6599Z"/><path class="cls-6" d="M2651.0891,980.4101c-4.49-2.55-8.04-6.12-10.6399-10.6899-2.6101-4.5699-3.9099-9.72-3.9099-15.45s1.3-10.87,3.9099-15.4399c2.6101-4.58,6.1499-8.14,10.6399-10.6899,4.49-2.55,9.46-3.83,14.8999-3.83s10.49,1.27,14.98,3.83c4.49,2.55,8.02,6.1,10.6001,10.64,2.5801,4.55,3.8701,9.71,3.8701,15.49s-1.29,10.95-3.8701,15.49c-2.5801,4.55-6.1201,8.1-10.6001,10.65-4.49,2.55-9.48,3.83-14.98,3.83s-10.4099-1.27-14.8999-3.83h0v-.0002ZM2677.049,974.72c3.28-1.9,5.8601-4.62,7.74-8.16s2.8201-7.63,2.8201-12.3-.9399-8.8199-2.8201-12.33c-1.8799-3.51-4.45-6.21-7.7-8.12s-6.96-2.86-11.1101-2.86-7.8601.95-11.1101,2.86c-3.25,1.9-5.8201,4.61-7.7,8.12s-2.8201,7.62-2.8201,12.33.9399,8.75,2.8201,12.3c1.8799,3.53,4.46,6.25,7.74,8.16s6.97,2.86,11.0701,2.86,7.79-.95,11.0701-2.86Z"/><path class="cls-6" d="M2751.6691,983.6501h-7.6599l-30.8101-46.72v46.72h-7.6599v-58.75h7.6599l30.8101,46.63v-46.63h7.6599v58.75Z"/><path class="cls-6" d="M2772.9292,982.1701c-3.0601-1.38-5.46-3.28-7.2-5.73-1.74-2.4399-2.6399-5.26-2.6899-8.46h8.1599c.28,2.75,1.4099,5.0699,3.4099,6.95,1.99,1.88,4.8899,2.8199,8.71,2.8199s6.52-.91,8.6299-2.74c2.1001-1.8199,3.1499-4.16,3.1499-7.03,0-2.24-.6201-4.0601-1.8501-5.47-1.24-1.4-2.78-2.47-4.6299-3.2-1.8501-.73-4.3501-1.51-7.49-2.36-3.8701-1.01-6.97-2.02-9.3-3.03s-4.3201-2.59-5.98-4.75c-1.6499-2.16-2.48-5.0601-2.48-8.71,0-3.2.8101-6.03,2.4399-8.5s3.9099-4.38,6.8601-5.72c2.95-1.35,6.3301-2.02,10.1399-2.02,5.5,0,10,1.38,13.51,4.12,3.5,2.75,5.48,6.4,5.9299,10.9399h-8.4199c-.28-2.24-1.46-4.22-3.54-5.9301-2.0801-1.71-4.8301-2.5699-8.25-2.5699-3.2,0-5.8101.83-7.8301,2.49-2.02,1.65-3.03,3.97-3.03,6.9399,0,2.14.6001,3.88,1.8101,5.22,1.21,1.35,2.7,2.37,4.46,3.08,1.77.7,4.25,1.5,7.45,2.4,3.8701,1.0699,6.98,2.12,9.3401,3.16,2.3601,1.03,4.3701,2.64,6.0601,4.79,1.6899,2.16,2.52,5.1,2.52,8.8,0,2.86-.76,5.5601-2.27,8.08-1.52,2.53-3.76,4.58-6.73,6.14-2.98,1.5699-6.48,2.36-10.52,2.36s-7.3401-.6801-10.3899-2.0601h.02l.0002-.0099Z"/><path class="cls-6" d="M2881.6291,983.6501l-7.6599-7.74c-2.8601,2.97-5.9199,5.17-9.1799,6.6-3.25,1.4301-6.9299,2.14-11.02,2.14s-7.6201-.73-10.73-2.1899c-3.1101-1.46-5.53-3.53-7.24-6.23s-2.5701-5.84-2.5701-9.4301c0-4.09,1.1599-7.7,3.49-10.8199,2.3301-3.11,5.77-5.5699,10.3101-7.36-1.8-2.13-3.0901-4.1-3.8701-5.89s-1.1799-3.76-1.1799-5.89c0-2.47.6299-4.7,1.8899-6.6899s3.0701-3.55,5.4299-4.67c2.3601-1.12,5.0801-1.6899,8.1599-1.6899s5.6699.59,7.9099,1.77,3.9299,2.8199,5.05,4.9301c1.1201,2.1,1.6299,4.45,1.51,7.03h-7.6599c.05-2.3-.5901-4.11-1.9399-5.4301-1.3501-1.3199-3.0901-1.98-5.22-1.98-2.25,0-4.0601.63-5.4299,1.89-1.3799,1.27-2.0601,2.88-2.0601,4.84,0,1.6899.46,3.3101,1.3899,4.88.9199,1.5699,2.48,3.51,4.6699,5.8l17.51,17.6,1.51-2.36,5.72-9.6h8.25l-6.8999,11.95c-.96,1.6801-2.0801,3.45-3.3701,5.3l13.21,13.21h-10.01l.03.03.0002-.0002ZM2861.979,976.3201c2.4399-1.1801,4.76-3,6.95-5.47l-17.26-17.34c-7.1799,2.75-10.77,7.1-10.77,13.05,0,3.3101,1.1899,6.0601,3.5801,8.25,2.3799,2.1899,5.48,3.28,9.3,3.28,3.03,0,5.76-.59,8.21-1.77h-.01Z"/><path class="cls-6" d="M2956.499,956.0401c1.77,1.4,3.1699,3.14,4.21,5.21,1.04,2.08,1.5601,4.29,1.5601,6.65,0,2.97-.76,5.66-2.27,8.04s-3.72,4.26-6.6101,5.64-6.3,2.0601-10.23,2.0601h-21.8899v-58.67h21.04c3.98,0,7.3799.66,10.1899,1.98s4.9099,3.1,6.3101,5.34c1.3999,2.25,2.1101,4.77,2.1101,7.58,0,3.48-.9399,6.36-2.8201,8.63s-4.3601,3.91-7.45,4.9301c2.1299.34,4.0801,1.21,5.8501,2.61h-.0002ZM2928.9392,950.3201h12.8799c3.5901,0,6.3701-.84,8.3301-2.53,1.96-1.6801,2.95-4.01,2.95-6.99s-.98-5.3-2.95-6.98c-1.97-1.6899-4.8-2.53-8.5-2.53h-12.71v19.02h0v.01ZM2951.4091,974.64c2.1299-1.79,3.2-4.29,3.2-7.49s-1.1201-5.8199-3.3701-7.71c-2.24-1.88-5.25-2.8199-9-2.8199h-13.3v20.7h13.55c3.8101,0,6.79-.9,8.9199-2.6899h0l.0002.0099Z"/><path class="cls-6" d="M2980.539,924.98v58.67h-7.6599v-58.67h7.6599Z"/><path class="cls-6" d="M3001.239,977.4201h20.54v6.23h-28.2v-58.67h7.6599v52.4399h0Z"/><path class="cls-6" d="M3064.6191,970.6h-25.5901l-4.72,13.05h-8.0801l21.21-58.33h8.8401l21.1201,58.33h-8.0801l-4.71-13.05h.01ZM3062.4292,964.37l-10.6101-29.63-10.6001,29.63h21.2102Z"/><path class="cls-6" d="M3132.799,983.6501h-7.6599l-30.8101-46.72v46.72h-7.6599v-58.75h7.6599l30.8101,46.63v-46.63h7.6599v58.75Z"/><path class="cls-6" d="M3154.049,982.1701c-3.0601-1.38-5.46-3.28-7.2-5.73-1.74-2.4399-2.6399-5.26-2.6899-8.46h8.1599c.28,2.75,1.4099,5.0699,3.4099,6.95,1.99,1.88,4.8899,2.8199,8.71,2.8199s6.52-.91,8.6299-2.74c2.1001-1.8199,3.1499-4.16,3.1499-7.03,0-2.24-.6201-4.0601-1.8501-5.47-1.24-1.4-2.78-2.47-4.6299-3.2-1.8501-.73-4.3501-1.51-7.49-2.36-3.8701-1.01-6.97-2.02-9.3-3.03s-4.3201-2.59-5.98-4.75c-1.6499-2.16-2.48-5.0601-2.48-8.71,0-3.2.8101-6.03,2.4399-8.5s3.9099-4.38,6.8601-5.72c2.95-1.35,6.3301-2.02,10.1399-2.02,5.5,0,10,1.38,13.51,4.12,3.5,2.75,5.48,6.4,5.9299,10.9399h-8.4199c-.28-2.24-1.46-4.22-3.54-5.9301-2.0801-1.71-4.8301-2.5699-8.25-2.5699-3.2,0-5.8101.83-7.8301,2.49-2.02,1.65-3.03,3.97-3.03,6.9399,0,2.14.6001,3.88,1.8101,5.22,1.21,1.35,2.7,2.37,4.46,3.08,1.77.7,4.25,1.5,7.45,2.4,3.8701,1.0699,6.98,2.12,9.3401,3.16,2.3601,1.03,4.3701,2.64,6.0601,4.79,1.6899,2.16,2.52,5.1,2.52,8.8,0,2.86-.76,5.5601-2.27,8.08-1.52,2.53-3.76,4.58-6.73,6.14-2.98,1.5699-6.48,2.36-10.52,2.36s-7.3401-.6801-10.3899-2.0601h.02l.0002-.0099Z"/><path class="cls-6" d="M3252.6091,928.5601c4.6899,2.38,8.28,5.79,10.77,10.22,2.5,4.4399,3.74,9.66,3.74,15.66s-1.25,11.21-3.74,15.61c-2.5,4.41-6.0901,7.77-10.77,10.1-4.6899,2.33-10.23,3.49-16.6201,3.49h-18.27v-58.67h18.27c6.3999,0,11.9399,1.1899,16.6201,3.58h0v.0101ZM3253.3291,971.3201c3.98-4.01,5.98-9.64,5.98-16.88s-2.01-12.99-6.02-17.08c-4.01-4.1-9.78-6.14-17.3-6.14h-10.6001v46.12h10.6001c7.5801,0,13.3501-2,17.3401-6.01h0v-.01Z"/><path class="cls-6" d="M3284.8891,931.21v19.61h21.3799v6.3101h-21.3799v20.2h23.8999v6.3199h-31.5601v-58.75h31.5601v6.3199h-23.8999v-.0099Z"/><path class="cls-6" d="M3343.8891,938.83c2.5801-4.58,6.1001-8.15,10.5701-10.73,4.46-2.58,9.4099-3.87,14.8501-3.87,6.3999,0,11.98,1.54,16.75,4.63,4.77,3.08,8.25,7.46,10.4399,13.12h-9.1799c-1.6299-3.53-3.97-6.25-7.03-8.16s-6.72-2.86-10.98-2.86-7.77.95-11.02,2.86c-3.26,1.9-5.8101,4.61-7.6599,8.12-1.8501,3.51-2.78,7.62-2.78,12.33s.9299,8.75,2.78,12.25c1.8501,3.51,4.3999,6.22,7.6599,8.12,3.25,1.91,6.9299,2.86,11.02,2.86s7.9299-.9399,10.98-2.8199c3.0601-1.88,5.3999-4.58,7.03-8.12h9.1799c-2.1899,5.61-5.6699,9.95-10.4399,13-4.77,3.0601-10.3501,4.59-16.75,4.59-5.4399,0-10.3899-1.28-14.8501-3.83-4.46-2.55-7.98-6.1-10.5701-10.65-2.5801-4.54-3.8701-9.6801-3.8701-15.41s1.29-10.87,3.8701-15.4399h0v.01Z"/><path class="cls-6" d="M3419.559,980.4101c-4.49-2.55-8.04-6.12-10.6399-10.6899-2.6101-4.5699-3.9099-9.72-3.9099-15.45s1.3-10.87,3.9099-15.4399c2.6101-4.58,6.1499-8.14,10.6399-10.6899,4.49-2.55,9.46-3.83,14.8999-3.83s10.49,1.27,14.98,3.83c4.49,2.55,8.02,6.1,10.6001,10.64,2.5801,4.55,3.8701,9.71,3.8701,15.49s-1.29,10.95-3.8701,15.49c-2.5801,4.55-6.1201,8.1-10.6001,10.65-4.49,2.55-9.48,3.83-14.98,3.83s-10.4099-1.27-14.8999-3.83h0v-.0002ZM3445.529,974.72c3.28-1.9,5.8601-4.62,7.74-8.16s2.8201-7.63,2.8201-12.3-.9399-8.8199-2.8201-12.33c-1.8799-3.51-4.45-6.21-7.7-8.12s-6.96-2.86-11.1101-2.86-7.8601.95-11.1101,2.86c-3.25,1.9-5.8201,4.61-7.7,8.12s-2.8201,7.62-2.8201,12.33.9399,8.75,2.8201,12.3c1.8799,3.53,4.46,6.25,7.74,8.16s6.97,2.86,11.0701,2.86,7.79-.95,11.0701-2.86Z"/><path class="cls-6" d="M3533.529,925.4001v58.24h-7.6599v-43.4301l-19.3601,43.4301h-5.3899l-19.4399-43.52v43.52h-7.6599v-58.24h8.25l21.55,48.14,21.55-48.14h8.1599-.0002Z"/><path class="cls-6" d="M3580.7092,954.3201c-3.3401,3.23-8.4299,4.84-15.28,4.84h-11.28v24.49h-7.6599v-58.67h18.9399c6.6201,0,11.6599,1.6,15.1101,4.8,3.45,3.2,5.1799,7.3199,5.1799,12.37s-1.6699,8.9399-5.01,12.17ZM3574.8591,950.0601c2.02-1.85,3.03-4.49,3.03-7.91,0-7.24-4.1499-10.86-12.46-10.86h-11.28v21.55h11.28c4.26,0,7.4099-.9301,9.4299-2.78Z"/><path class="cls-6" d="M3602.8891,931.21v19.61h21.3799v6.3101h-21.3799v20.2h23.8999v6.3199h-31.5601v-58.75h31.5601v6.3199h-23.8999v-.0099ZM3618.3691,912.2701l-17.9299,9.6v-5.73l17.9299-10.52v6.65Z"/><path class="cls-6" d="M3674.509,924.98v6.23h-15.99v52.4399h-7.6599v-52.4399h-16.0801v-6.23h39.73Z"/><path class="cls-6" d="M3691.5991,931.21v19.61h21.3799v6.3101h-21.3799v20.2h23.9001v6.3199h-31.5601v-58.75h31.5601v6.3199h-23.8999l-.0002-.0099Z"/><path class="cls-6" d="M3773.239,983.6501h-7.6602l-30.8101-46.72v46.72h-7.6602v-58.75h7.6602l30.8101,46.63v-46.63h7.6602v58.75Z"/><path class="cls-6" d="M3787.299,938.83c2.5801-4.58,6.1001-8.15,10.5698-10.73,4.46-2.58,9.4102-3.87,14.8501-3.87,6.3999,0,11.98,1.54,16.75,4.63,4.77,3.08,8.25,7.46,10.4399,13.12h-9.1802c-1.6299-3.53-3.9702-6.25-7.0298-8.16-3.0601-1.91-6.7202-2.86-10.98-2.86s-7.77.95-11.02,2.86c-3.2598,1.9-5.8101,4.61-7.6602,8.12s-2.7798,7.62-2.7798,12.33.9302,8.75,2.7798,12.25c1.8501,3.51,4.3999,6.22,7.6602,8.12,3.25,1.91,6.9302,2.86,11.02,2.86s7.9302-.9399,10.98-2.8199c3.0601-1.88,5.3999-4.58,7.0298-8.12h9.1802c-2.1899,5.61-5.6699,9.95-10.4399,13-4.77,3.0601-10.3501,4.59-16.75,4.59-5.4399,0-10.3901-1.28-14.8501-3.83-4.46-2.55-7.98-6.1-10.5698-10.65-2.5801-4.54-3.8701-9.6801-3.8701-15.41s1.29-10.87,3.8701-15.4399h0v.01Z"/><path class="cls-6" d="M3858.9289,931.21v19.61h21.3799v6.3101h-21.3799v20.2h23.8999v6.3199h-31.5601v-58.75h31.5601v6.3199h-23.8999v-.0099Z"/><path class="cls-6" d="M3902.6491,982.1701c-3.0601-1.38-5.46-3.28-7.2002-5.73-1.7402-2.4399-2.6401-5.26-2.6899-8.46h8.1602c.2798,2.75,1.4102,5.0699,3.4102,6.95,1.9902,1.88,4.8901,2.8199,8.71,2.8199s6.52-.91,8.6299-2.74c2.1001-1.8199,3.1499-4.16,3.1499-7.03,0-2.24-.6201-4.0601-1.8501-5.47-1.2402-1.4-2.7798-2.47-4.6299-3.2s-4.3501-1.51-7.4902-2.36c-3.8701-1.01-6.9702-2.02-9.2998-3.03-2.3301-1.01-4.3198-2.59-5.98-4.75-1.6499-2.16-2.48-5.0601-2.48-8.71,0-3.2.8101-6.03,2.4399-8.5s3.9102-4.38,6.8599-5.72c2.9502-1.35,6.3301-2.02,10.1401-2.02,5.5,0,10,1.38,13.5098,4.12,3.5,2.75,5.48,6.4,5.9302,10.9399h-8.4199c-.2798-2.24-1.46-4.22-3.54-5.9301-2.0801-1.71-4.8301-2.5699-8.25-2.5699-3.2002,0-5.8101.83-7.8301,2.49-2.02,1.65-3.0298,3.97-3.0298,6.9399,0,2.14.6001,3.88,1.8101,5.22,1.21,1.35,2.7002,2.37,4.46,3.08,1.77.7,4.25,1.5,7.4502,2.4,3.8701,1.0699,6.98,2.12,9.3398,3.16,2.3599,1.03,4.3701,2.64,6.0601,4.79,1.6899,2.16,2.52,5.1,2.52,8.8,0,2.86-.7598,5.5601-2.27,8.08-1.52,2.53-3.7598,4.58-6.73,6.14-2.98,1.5699-6.48,2.36-10.52,2.36s-7.3398-.6801-10.3901-2.0601h.02v-.0099Z"/><path class="cls-1" d="M2144.8191,417.11l-.6599.16c.23,0,.46-.03.6899-.03l-.03-.13h0Z"/><path class="cls-1" d="M2144.8491,417.24c-.23,0-.46.03-.6899.03l.6599-.16.03.13h0Z"/><path class="cls-1" d="M2183.3391,280.49c-.79-.92-1.6201-1.82-2.47-2.71.3999.4.76.79,1.1499,1.19.49.53.96,1.02,1.3201,1.52Z"/><path class="cls-6" d="M2222.9592,608.61c-2.6499-2.42-5.4099-3.55-8.3201-3.36-2.9399.2-5.3999,1.76-7.3301,4.68-17.4399,38.45-45.28,61.66-83.5,69.61-22.02,4.6-44.6201,4.54-67.8601-.23-1.6599-.33-3.3201-.69-4.97-1.1-24.97-5.83-46.3401-13.66-64.0801-23.54-9.78-5.44-19.3601-11.6-28.8701-18.36-44.5801-36.33-78.79-91.99-85.49-153.62l259.1799-56.79c15.02-3.29,29.6699-8.19,43.4299-15.05,4.5601-2.27,9.21-4.84,13.6101-7.69.6599-.39,1.3-.79,1.9199-1.23,4.02-2.71,7.8-5.67,11.05-8.81.3601-.36.72-.69,1.0601-1.07.4299-.42.8601-.89,1.27-1.32.03,0,.03-.04.03-.04.5601-.59,1.1001-1.23,1.6299-1.85v-.04c.5601-.62,1.03-1.26,1.49-1.89.0701-.1.1699-.2.2-.29.3601-.47.6899-.96.99-1.43.03-.04.0601-.07.0601-.1,8.98-13.13,10.3401-28.57,6.1001-45.39-6-21.94-16.8301-41.9-32.6499-59.87-.1001-.13-.1899-.26-.3301-.39-.79-.92-1.6201-1.83-2.48-2.72-4.1799-4.3-8.0901-8.18-11.6699-11.63-.0701-.1-.1699-.17-.26-.23-10.8701-10.54-18.4299-16.9-19.6299-17.91-.1001-.09-.1699-.13-.1699-.13-42.79-39.38-103.1001-60.26-164.78-54.62-257.1099,23.5-333.72,419.83-166.1799,540.74,0,0,.0701.03.1699.13.0701.03.1299.1.2.16,5.8701,4.64,80.02,61.14,184.47,44.1899.5601-.0601,1.1699-.16,1.73-.26,2.02-.33,4.04-.7,6.1001-1.1,56.9099-11.87,104.71-32.88,143.3999-63.02,38.6899-30.13,62.72-61.46,72.04-93.98,1.5901-4.57,1.1001-8.06-1.53-10.47l-.03.02.0002-.0002ZM1976.6892,228.88s3.3899-.3,9.1599.46c.1299,0,.23,0,.3601.03,7.6599,1.07,19.3601,4.01,32.78,11.97.2.13.3999.26.6299.39.8899.53,1.79,1.1,2.71,1.7.3999.26.8301.52,1.23.79,23.1799,15.22,40.48,35.47,51.8799,60.69,9.6499,21.42,12.6599,41.7,9.1201,60.89-.1001.46-.1899.89-.29,1.33-4.05,16.9-15.3899,25.79-18.8899,28.21-.2.13-.3301.23-.47.3-4.5701,2.65-9.6399,4.63-15.05,5.7l-184.9099,36.56c-8.46-83.08,10.3999-209.01,111.74-209.04v.02h0Z"/><path class="cls-6" d="M446.3191,94.5201c-8.39-1.38-14.38-3.59-18.44-5.67,0-.01-.03-.02-.04-.02-1.4-.79-2.7-1.58-3.85-2.29-.9-.56-1.69-1.08-2.37-1.53-.19-.12-.36-.24-.53-.35-.18-.12-.34-.23-.49-.34-.21-.15-.41-.29-.62-.43-.06-.04-.12-.08-.17-.12-.09-.08-.19-.14-.29-.2-.25-.17-.38-.27-.38-.27-60.72-42.33-116.21-52.93-166.35-31.51-54.19,23.2-86.2,76.73-95.88,160.75s5.52,173.85,45.59,269.19c40.08,95.35,93.46,168.85,160.29,220.5,66.7,51.51,127.22,65.6801,181.54,42.62,54.2-23.2,86.21-76.6,95.89-160.21,8.8701-75.93-3.1-157.12-35.5-243.3-1.22-2.29-2.16-4.59-2.97-7.14-11.16-34.93,17.48-76.6,63.8799-92.79,46.39-16.32,93.0601-1.21,104.08,33.72.54,1.88,1.08,3.77,1.48,5.66,10.22,40.19,20.98,76.87,22.73,118.14,3.36,86.18-19.5,164.4-68.45,234.8-22.99,33.18-51.37,62.58-83.65,86.58-68.17,50.84-145.09,76.33-230.49,76.33-71.68,0-138.65-17.9399-201.05-53.6801-62.93-36.01-113.36-85.23-151.15-147.4C23.3591,536.62,3.0491,469.06.3591,400.14c-2.96-72.83,12.38-139.98,46-201.61,33.21-60.83,79.74-109.11,139.72-144.85C245.9191,17.95,311.679,0,383.3591,0c14.61,0,28.95.81,43.09,2.36,5.16.56,10.33.91,15.51,1.22,6.08.37,12.37,1.61,18.72,3.84h.13c1.21.4,2.43.81,3.63,1.35,29.18,11.99,45.73,40.05,36.99,62.57-7.12,18.35-28.91,27.52-52.58,23.61"/></svg>